<svg width="32" height="32" viewBox="0 0 32 32" fill="none" xmlns="http://www.w3.org/2000/svg">
<path d="M3.13467 17.619C2.66401 14.555 2.42801 13.0243 3.00801 11.6657C3.58667 10.3083 4.87201 9.37899 7.44134 7.52166L9.36134 6.13366C12.5573 3.82299 14.156 2.66699 16 2.66699C17.844 2.66699 19.4427 3.82299 22.6387 6.13366L24.5587 7.52166C27.128 9.37899 28.412 10.3083 28.992 11.6657C29.5707 13.0243 29.336 14.555 28.8653 17.6177L28.464 20.231C27.7973 24.5723 27.4627 26.743 25.9053 28.039C24.348 29.335 22.072 29.3337 17.5187 29.3337H14.48C9.92667 29.3337 7.65067 29.3337 6.09334 28.039C4.53601 26.743 4.20267 24.5723 3.53467 20.2297L3.13467 17.619Z" stroke="#1D4ED8" stroke-width="1.5" stroke-linejoin="round"/>
<path d="M15 17.667C16.5827 19.2497 18.6667 20.8577 18.6667 20.8577L21.524 18.0003C21.524 18.0003 19.916 15.9163 18.3333 14.3337C16.7507 12.751 14.6667 11.143 14.6667 11.143L11.8093 14.0003C11.8093 14.0003 13.4173 16.0843 15 17.667ZM15 17.667L10 22.667M22 17.5243L18.1907 21.3337M15.1427 10.667L11.3333 14.4763" stroke="#1D4ED8" stroke-width="1.5" stroke-linecap="round" stroke-linejoin="round"/>
</svg>
